<svg width="256" height="149" viewBox="0 0 256 149" xmlns="http://www.w3.org/2000/svg"><title>Page 1 Copy</title><path d="M31.93 149C14.294 149 0 134.705 0 117.07c0-17.633 14.295-31.927 31.93-31.927 4.165 0 8.132.822 11.78 2.273-.734-4.198-1.14-8.51-1.14-12.916 0-41.145 33.356-74.5 74.5-74.5 36.186 0 66.335 25.8 73.08 60.007 2.36-.556 4.806-.88 7.334-.88 15.782 0 28.856 11.462 31.436 26.51 15.046 2.578 26.51 15.652 26.51 31.434 0 17.635-14.296 31.93-31.93 31.93H31.93z" fill="#FFF" fill-rule="evenodd" opacity=".126"/></svg>